<?xml version="1.0" encoding="UTF-8"?>
<svg id="Capa_2" data-name="Capa 2" xmlns="http://www.w3.org/2000/svg" viewBox="0 0 971 338.25">
  <defs>
    <style>
      .cls-1, .cls-2, .cls-3 {
        fill: #fff;
      }

      .cls-2 {
        font-family: Helvetica-Bold, Helvetica;
        font-size: 235.03px;
        font-weight: 700;
      }

      .cls-3 {
        font-family: Helvetica, Helvetica;
        font-size: 46.13px;
      }

      .cls-4 {
        letter-spacing: -.02em;
      }
    </style>
  </defs>
  <g id="Capa_2-2" data-name="Capa 2">
    <g>
      <g>
        <g>
          <polygon class="cls-1" points="204.91 148.72 187.74 170.48 185.81 172.93 178.01 182.81 153.07 214.41 149.59 218.82 141.3 229.35 141.27 229.38 121.17 254.85 120.82 255.28 120.46 254.85 120.34 254.7 100.19 230.52 99.69 229.93 90.43 218.82 87.61 215.46 60.38 182.81 54.88 176.21 53.5 174.56 32.17 148.72 73.95 148.72 102.43 182.81 107.17 188.48 120.13 204.03 120.34 204.29 120.34 204.26 120.44 204.38 153.07 162.28 153.32 161.97 163.77 148.72 204.91 148.72"/>
          <path class="cls-1" d="M218.64,117.09c0,5.95-.94,11.68-2.71,17.04-.34,.91-.68,1.82-1.02,2.73h-43.01c2.42-3.09,3.59-6.02,4.18-7.89,.41-1.31,1.05-3.4,1.05-6.22,0-4-1.24-7.7-3.36-10.75-1.22-1.75-2.73-3.29-4.46-4.54-1.62-1.17-3.42-2.1-5.37-2.71-.2-.06-.4-.12-.6-.18-1.27-.35-2.65-.55-5.09-.69-.03,0-.06,0-.08,0-5.41-.33-10.82,.61-15.82,2.66l-.11-.29-79.04,30.62H22.86c-2.37-2.97-4.39-6.22-6.04-9.69-3.08-6.5-4.81-13.75-4.81-21.41,0-8.44,2.08-16.38,5.77-23.35,.88-1.67,1.85-3.28,2.91-4.82,1.99-2.91,4.28-5.6,6.82-8.03C46.59,51.44,76.43,20.6,95.5,2.48h49.62l-58.76,59.6-7.44,6.91c-1.1,1.27-2.41,3.2-3.14,5.76-.55,1.88-.56,3.34-.56,3.66,0,2.03,.5,3.95,1.37,5.64,.37,.72,.83,1.41,1.34,2.05,2.24,2.79,5.69,4.58,9.56,4.58,1.7,0,3.3-.34,4.78-.96l14.47-6.34,26.54-11.62,12.38-5.43c5.72-2.5,11.88-3.94,18.13-3.96h.13c9.14,0,17.77,2.25,25.34,6.21,8.62,4.51,15.89,11.25,21.03,19.46,.46,.73,.91,1.48,1.34,2.24,1.68,2.98,3.08,6.12,4.18,9.41,1.85,5.47,2.83,11.33,2.83,17.41Z"/>
        </g>
        <circle class="cls-1" cx="182.62" cy="26.74" r="26.74"/>
      </g>
      <text class="cls-2" transform="translate(255.73 225.21)"><tspan x="0" y="0">SIVEN</tspan></text>
      <text class="cls-3" transform="translate(0 313.64)"><tspan x="0" y="0">Sistema de </tspan><tspan class="cls-4" x="243.58" y="0">V</tspan><tspan x="273.54" y="0">igilancia Epidemiológica Nacional </tspan></text>
    </g>
  </g>
</svg>