<?xml version="1.0" encoding="UTF-8"?>
<svg id="Capa_2" data-name="Capa 2" xmlns="http://www.w3.org/2000/svg" viewBox="0 0 949.05 338.25">
  <defs>
    <style>
      .cls-1 {
        font-family: Helvetica-Bold, Helvetica;
        font-size: 235.03px;
        font-weight: 700;
      }
    </style>
  </defs>
  <g id="Capa_2-2" data-name="Capa 2">
    <g>
      <g>
        <g>
          <polygon points="192.9 148.72 175.72 170.48 173.79 172.93 166 182.81 141.06 214.41 137.57 218.82 129.28 229.35 129.25 229.38 109.16 254.85 108.81 255.28 108.44 254.85 108.33 254.7 88.17 230.52 87.67 229.93 78.41 218.82 75.6 215.46 48.37 182.81 42.86 176.21 41.49 174.56 20.15 148.72 61.93 148.72 90.41 182.81 95.15 188.48 108.12 204.03 108.33 204.29 108.33 204.26 108.43 204.38 141.06 162.28 141.3 161.97 151.75 148.72 192.9 148.72"/>
          <path d="M206.62,117.09c0,5.95-.94,11.68-2.71,17.04-.34,.91-.68,1.82-1.02,2.73h-43.01c2.42-3.09,3.59-6.02,4.18-7.89,.41-1.31,1.05-3.4,1.05-6.22,0-4-1.24-7.7-3.36-10.75-1.22-1.75-2.73-3.29-4.46-4.54-1.62-1.17-3.42-2.1-5.37-2.71-.2-.06-.4-.12-.6-.18-1.27-.35-2.65-.55-5.09-.69-.03,0-.06,0-.08,0-5.41-.33-10.82,.61-15.82,2.66l-.11-.29-79.04,30.62H10.85c-2.37-2.97-4.39-6.22-6.04-9.69-3.08-6.5-4.81-13.75-4.81-21.41,0-8.44,2.08-16.38,5.77-23.35,.88-1.67,1.85-3.28,2.91-4.82,1.99-2.91,4.28-5.6,6.82-8.03C34.57,51.44,64.42,20.6,83.48,2.48h49.62l-58.76,59.6-7.44,6.91c-1.1,1.27-2.41,3.2-3.14,5.76-.55,1.88-.56,3.34-.56,3.66,0,2.03,.5,3.95,1.37,5.64,.37,.72,.83,1.41,1.34,2.05,2.24,2.79,5.69,4.58,9.56,4.58,1.7,0,3.3-.34,4.78-.96l14.47-6.34,26.54-11.62,12.38-5.43c5.72-2.5,11.88-3.94,18.13-3.96h.13c9.14,0,17.77,2.25,25.34,6.21,8.62,4.51,15.89,11.25,21.03,19.46,.46,.73,.91,1.48,1.34,2.24,1.68,2.98,3.08,6.12,4.18,9.41,1.85,5.47,2.83,11.33,2.83,17.41Z"/>
        </g>
        <circle cx="170.6" cy="26.74" r="26.74"/>
      </g>
      <text class="cls-1" transform="translate(243.72 225.21)"><tspan x="0" y="0">SIVEN</tspan></text>
    </g>
  </g>
</svg>