<?xml version="1.0" encoding="UTF-8"?>
<svg id="Capa_2" data-name="Capa 2" xmlns="http://www.w3.org/2000/svg" viewBox="0 0 792.94 375.67">
  <defs>
    <style>
      .cls-1 {
        letter-spacing: -.02em;
      }

      .cls-2 {
        fill: #7c7c7c;
        font-family: Helvetica, Helvetica;
        font-size: 76.05px;
      }

      .cls-3 {
        fill: #1189de;
      }
    </style>
  </defs>
  <g id="Capa_2-2" data-name="Capa 2">
    <g>
      <g>
        <g>
          <path class="cls-3" d="M256.78,208.26c-35.51,44.99-76.45,96.91-111.98,141.91-37.19-44.71-81.09-96.97-118.06-141.91h55.63c15.45,18.5,46.74,55.91,61.79,74.01v-.04l.13,.16c10.33-13.32,47.88-61.92,57.7-74.13h54.79Z"/>
          <path class="cls-3" d="M275.06,166.13c-.02,9.3-1.65,18.01-4.97,26.34h-57.27c21.32-30.09-9.79-53.79-39.34-40.39l-.15-.38-105.26,40.77H14.34c-17.97-21.68-19.2-56.04-2.88-78.93C38.62,83.04,82.15,42.63,111.08,13.51h66.08c-6.07,6.03-83.63,85.4-88.15,88.57-12.26,12.74,.59,34.66,17.77,27.59,11.92-5.24,42.32-18.53,54.61-23.91,12.15-5.3,27.05-13.04,40.63-12.5,39.59-.69,73.64,33.49,73.04,72.87Z"/>
        </g>
        <path class="cls-3" d="M262.7,45.82c-.8,46.81-70.43,46.8-71.22,0,.8-46.81,70.43-46.8,71.22,0Z"/>
      </g>
      <text class="cls-2" transform="translate(319.47 65.3)"><tspan x="0" y="0">Sistema de </tspan><tspan class="cls-1" x="0" y="91.26">V</tspan><tspan x="49.39" y="91.26">igilancia </tspan><tspan x="0" y="182.53">Epidemilógica</tspan><tspan x="0" y="273.79">Nacional </tspan></text>
    </g>
  </g>
</svg>